<?xml version="1.0"?>
<svg xmlns="http://www.w3.org/2000/svg" height="512px" viewBox="0 0 512 512" width="512px"><path d="m381.511719 390.109375c-20.09375 0-36.4375-16.347656-36.4375-36.441406 0-20.089844 16.34375-36.4375 36.4375-36.4375 20.089843 0 36.4375 16.347656 36.4375 36.4375 0 20.09375-16.347657 36.441406-36.4375 36.441406zm0-52.878906c-9.066407 0-16.4375 7.375-16.4375 16.441406 0 9.0625 7.371093 16.4375 16.4375 16.4375 9.0625 0 16.4375-7.375 16.4375-16.4375 0-9.066406-7.375-16.441406-16.4375-16.441406zm0 0" fill="#2b616d"/><path d="m117.410156 372.738281c-26.683594 0-48.394531-21.707031-48.394531-48.394531 0-26.683594 21.710937-48.394531 48.394531-48.394531 26.6875 0 48.394532 21.710937 48.394532 48.394531 0 26.6875-21.707032 48.394531-48.394532 48.394531zm0-76.789062c-15.65625 0-28.394531 12.738281-28.394531 28.394531 0 15.660156 12.738281 28.398438 28.394531 28.398438s28.394532-12.738282 28.394532-28.398438c0-15.65625-12.738282-28.394531-28.394532-28.394531zm0 0" fill="#2b616d"/><path d="m460.75 111.179688h-112.535156c-10.34375 0-20.332032-4.328126-27.410156-11.871094-7.175782-7.652344-10.761719-17.65625-10.085938-28.160156 1.203125-18.835938 16.328125-33.90625 35.175781-35.050782 1.796875-.109375 3.59375-.089844 5.378907.050782 6.015624-5.6875 13.914062-8.769532 22.167968-8.734376 7.464844-16.613281 23.886719-27.414062 42.519532-27.414062 22.324218 0 41.023437 15.570312 45.589843 36.671875.582031.011719 1.164063.039063 1.742188.074219 18.488281 1.242187 33.378906 16.117187 34.628906 34.601562.707031 10.441406-2.824219 20.390625-9.945313 28.007813-7.023437 7.511719-16.945312 11.824219-27.226562 11.824219zm-112.542969-55.15625c-.367187 0-.734375.011718-1.101562.035156-8.65625.527344-15.875 7.714844-16.429688 16.367187-.316406 4.929688 1.359375 9.617188 4.714844 13.195313 3.363281 3.582031 7.914063 5.554687 12.820313 5.554687h112.539062c4.832031 0 9.3125-1.945312 12.613281-5.476562 3.296875-3.527344 4.933594-8.144531 4.605469-13-.582031-8.546875-7.464844-15.421875-16.015625-15.996094-1.453125-.101563-2.925781-.011719-4.363281.253906-.394532.070313-.785156.121094-1.175782.144531-2.003906.164063-5.84375.042969-9.21875-2.601562-2.582031-2.015625-4.183593-4.941406-4.542968-8.273438-.011719-.097656-.023438-.195312-.03125-.292968-.015625-.15625-.023438-.3125-.03125-.46875-.625-14.277344-12.324219-25.464844-26.628906-25.464844-11.792969 0-22.035157 7.566406-25.488282 18.832031-1.953125 6.363281-8.324218 10.15625-14.828125 8.828125-4.382812-.894531-8.863281.703125-11.699219 4.175782-2.996093 3.667968-7.738281 5.394531-12.390624 4.507812-1.097657-.210938-2.21875-.320312-3.347657-.320312zm-27.511719 15.761718h.011719zm131.886719-26.757812h.007813zm0 0" fill="#2b616d"/><path d="m393.609375 264.558594c-.648437 0-1.308594-.066406-1.960937-.199219-.636719-.128906-1.257813-.320313-1.867188-.570313-.601562-.25-1.179688-.558593-1.722656-.917968-.546875-.359375-1.058594-.78125-1.519532-1.238282-1.867187-1.871093-2.929687-4.441406-2.929687-7.070312 0-.652344.0625-1.3125.191406-1.960938.128907-.628906.320313-1.261718.570313-1.871093.25-.597657.558594-1.179688.917968-1.71875.371094-.550781.789063-1.070313 1.25-1.53125.460938-.460938.972657-.871094 1.519532-1.238281.542968-.359376 1.121094-.671876 1.722656-.921876.609375-.25 1.230469-.4375 1.867188-.566406 1.292968-.261718 2.621093-.261718 3.910156 0 .640625.128906 1.269531.316406 1.871094.566406.609374.25 1.191406.5625 1.730468.921876.550782.367187 1.058594.777343 1.519532 1.238281.460937.460937.878906.980469 1.242187 1.53125.359375.539062.667969 1.121093.917969 1.71875.25.609375.441406 1.230469.570312 1.871093.128906.648438.199219 1.300782.199219 1.960938 0 .648438-.070313 1.308594-.199219 1.949219s-.320312 1.269531-.570312 1.871093c-.25.597657-.558594 1.179688-.917969 1.726563-.363281.539063-.78125 1.0625-1.242187 1.523437-.460938.457032-.96875.878907-1.519532 1.238282-.539062.359375-1.121094.667968-1.730468.917968-.601563.25-1.230469.441407-1.871094.570313-.636719.128906-1.296875.199219-1.949219.199219zm0 0" fill="#2b616d"/><path d="m502 336.34375h-41.925781c-2.527344-11.289062-7.4375-21.707031-14.171875-30.6875v-76.332031c0-14.367188-10.789063-26.226563-25.074219-27.574219l-38.484375-3.734375v-65.21875c0-5.523437-4.476562-10-10-10h-33.824219c-5.523437 0-10 4.476563-10 10v59.996094l-28.914062-2.804688-22.632813-101.867187c-5.019531-22.789063-25.597656-39.328125-48.933594-39.328125h-151.941406c-5.523437 0-10 4.476562-10 10v168.46875c-34.773437 18.453125-58.511718 55.046875-58.511718 97.082031 0 4.105469.226562 8.160156.667968 12.152344-4.691406.828125-8.253906 4.921875-8.253906 9.847656v155.65625c0 5.523438 4.476562 10 10 10h492c5.523438 0 10-4.476562 10-10v-155.65625c0-5.523438-4.476562-10-10-10zm-153.484375-193.546875h13.828125v52.953125l-13.828125-1.421875zm143.484375 271.375h-57.441406c16.195312-14.21875 26.65625-34.816406 27.410156-57.828125h30.03125zm-270.359375-55.183594 79.757813 2.609375c2.046874 20.882813 12.113281 39.449219 27.0625 52.574219h-147.925782c19.019532-13.402344 33.609375-32.6875 41.105469-55.183594zm99.367187-5.332031c0-.472656.003907-.941406.015626-1.414062v-.007813c0-.027344 0-.054687.003906-.082031.171875-7.273438 1.660156-14.375 4.453125-21.171875 9.285156-22.949219 31.28125-37.792969 55.996093-37.8125 33.25.121093 60.402344 27.265625 60.535157 60.515625-.003907 33.355468-27.144531 60.488281-60.5 60.488281-33.363281 0-60.503907-27.140625-60.503907-60.515625zm-63.566406-261.21875 21.085938 94.894531-90.851563-8.261719v-110.277343h40.363281c14.023438 0 26.386719 9.9375 29.402344 23.644531zm-171.34375-23.644531h81.578125v119.410156c0 .117187.003907.238281.007813.355469 0 .042968.003906.085937.003906.128906.007812.144531.019531.292969.03125.4375 0 .011719.003906.023438.003906.035156.003906.050782.011719.101563.015625.152344.003907.027344.003907.054688.007813.085938.007812.050781.015625.105468.023437.15625 0 .023437.003907.050781.007813.074218.007812.058594.019531.113282.027344.171875.003906.019531.003906.039063.007812.0625.011719.050781.019531.105469.03125.160157.003906.023437.007812.046874.011719.070312.007812.046875.015625.089844.027343.136719.007813.03125.011719.0625.019532.09375.007812.042969.019531.085937.03125.128906.003906.03125.011718.066406.019531.097656.011719.050781.027344.101563.039063.152344.007812.023437.011718.046875.019531.070313.015625.0625.035156.125.050781.191406.003906.007812.007812.019531.007812.03125.019532.0625.039063.125.058594.191406.003906.007812.007813.019531.007813.03125.019531.054688.039062.113281.058593.171875.003907.015625.007813.03125.015626.046875.019531.058594.042968.117188.0625.175781.003906.015625.007812.027344.015624.039063.019532.050781.039063.105468.0625.160156.003907.019531.011719.035156.019532.054688.019531.046874.035156.09375.054687.140624.011719.023438.019531.046876.03125.070313.019531.050781.042969.101563.066407.152344.007812.019531.015624.039062.023437.054687.019531.050782.042969.097656.066406.148438.007813.019531.019531.039062.027344.0625.023437.042968.046875.089844.070313.136718.007812.023438.019531.046876.03125.066407.023437.046875.046874.09375.074218.144531.007813.019531.019532.039062.03125.058594.023438.046875.050782.09375.074219.140625.011719.019531.023437.039062.03125.058593.027344.042969.050781.085938.078125.128907.011719.023437.023438.046875.039062.070312.023438.039063.046876.078125.070313.121094.015625.023437.03125.046875.046875.070313.023438.039062.046875.078124.074219.117187.015625.023437.03125.050781.046875.074219.023437.039062.050781.074218.074218.109375.015626.027343.035157.054687.054688.082031.027344.035156.050781.074219.078125.113281.015625.023438.035156.046875.050781.066407.027344.039062.054688.078124.082032.113281.015624.023437.035156.046875.050781.070312.027343.035157.050781.066407.074219.097657.023437.027343.042968.054687.066406.085937.023437.027344.050781.058594.074218.089844.023438.027343.046876.054687.066407.082031.027343.035156.054687.066406.082031.097656.023438.023438.042969.050782.066406.074219.023438.03125.050782.0625.078125.089844.023438.027343.046875.054687.070313.082031.027344.027344.054687.054688.082031.085938.023437.027343.046875.050781.074219.078124.023437.027344.050781.054688.078125.082032.027343.027344.050781.054687.078125.082031s.054687.054687.082031.078125c.027344.027344.050781.054688.078125.078125.027344.027344.058594.054687.085938.082031.027343.023438.054687.050782.082031.074219.027343.027344.054687.050781.082031.074219.027344.027344.058594.050781.085938.078125.027343.023437.054687.046875.078124.070312.03125.023438.0625.050781.09375.078125.027344.023438.054688.042969.082032.066406.03125.027344.0625.050782.09375.074219.027344.023438.054687.042969.085937.066407.03125.023437.0625.050781.09375.074218.027344.023438.058594.042969.085938.0625.03125.023438.0625.050782.097656.074219.027344.019531.058594.039063.085937.058594.03125.027343.066407.046875.097657.070312.03125.019531.058593.042969.089843.058594.03125.023437.066407.046875.097657.070313l.09375.058593c.03125.023438.066406.042969.097656.0625s.0625.039063.09375.058594c.035156.023437.066406.042969.101563.0625.03125.019531.0625.035156.089843.054687.035157.019532.070313.039063.109375.058594.03125.019532.066406.039063.101563.058594.03125.015625.0625.035156.09375.050781.035156.019531.074219.039063.113281.058594.03125.015625.058594.03125.089844.046875.035156.019531.070312.035156.109375.054688.03125.015624.0625.03125.097656.046874.039063.019532.078125.039063.117187.054688.027344.015625.054688.027344.085938.042969.042969.019531.085938.035156.128906.054687.027344.011719.054688.023438.082032.035156.042968.019532.082031.035157.121093.050782.03125.015625.0625.027344.09375.039062.042969.015625.082031.03125.125.046875.03125.011719.058594.023438.089844.035157.046875.015624.09375.035156.140625.050781.023438.007812.050781.015625.074219.027343.046875.015626.09375.03125.140625.046876.027344.007812.054687.015624.082031.027343.046875.011719.089844.027344.136719.039063.027344.011718.058594.019531.089844.027344.046874.015624.09375.027343.140624.042968.023438.003906.054688.011719.082032.019532.046875.015624.097656.027343.148437.039062.027344.007812.050781.015625.078125.019531.050782.011719.105469.023438.15625.035157.023438.007812.046875.011718.070313.015624.054687.011719.109375.023438.167969.035157.019531.003906.042968.007812.066406.015625.054687.007812.109375.019531.164062.027344.023438.003906.046875.007812.070313.011718.054687.011719.109375.019532.164062.027344.023438.003906.046875.007812.070313.011719.054687.007812.109375.015625.164062.023437.027344 0 .050782.003906.074219.007813.054687.003906.109375.011719.164063.015625.019531.003906.039062.003906.058593.007812l.054688.003906h.007812l242.148438 23.496094c3.980469.378906 6.980469 3.675782 6.980469 7.671875v57.390625c-12.742188-8.503906-28.011719-13.492187-44.398438-13.550781-32.945312.027344-62.210938 19.777344-74.546875 50.265625-2.414063 5.878906-4.101563 11.960938-5.046875 18.167969l-75.664062-2.472657c.65625-4.835937.992187-9.769531.992187-14.78125 0-30.84375-12.78125-58.761718-33.324219-78.730468l159.042969 15.121094c.320313.03125.640625.046874.957031.046874 5.097656 0 9.453125-3.878906 9.945313-9.054687.519531-5.5-3.511719-10.378906-9.011719-10.902344l-195.503906-18.585937c-.519532-.046875-1.03125-.054688-1.535156-.023438-12.511719-4.964844-26.140626-7.699218-40.398438-7.699218-10.875 0-21.386719 1.589843-31.3125 4.546874v-150.277343zm31.3125 165.726562c49.53125 0 89.828125 40.296875 89.828125 89.824219 0 49.53125-40.296875 89.828125-89.828125 89.828125s-89.824218-40.296875-89.824218-89.828125c0-49.527344 40.292968-89.824219 89.824218-89.824219zm-63.125 179.652344h-34.285156v-39.132813c8.160156 15.617188 19.96875 29.042969 34.285156 39.132813zm437.714844 77.828125h-472v-57.828125h472zm0 0" fill="#2b616d"/><path d="m449.160156 473.089844c-.660156 0-1.308594-.070313-1.960937-.199219-.640625-.128906-1.269531-.320313-1.871094-.570313-.597656-.25-1.179687-.558593-1.726563-.921874-.542968-.359376-1.050781-.777344-1.511718-1.25-.46875-.457032-.878906-.96875-1.25-1.507813-.359375-.550781-.667969-1.128906-.917969-1.730469-.25-.601562-.441406-1.230468-.570313-1.871094-.132812-.640624-.203124-1.296874-.203124-1.949218 0-.660156.070312-1.308594.203124-1.957032.128907-.640624.320313-1.273437.570313-1.871093.25-.601563.558594-1.179688.917969-1.730469.359375-.539062.78125-1.050781 1.238281-1.511719.460937-.46875.980469-.878906 1.523437-1.25.546876-.359375 1.128907-.667969 1.726563-.917969.601563-.25 1.230469-.441406 1.871094-.570312 1.289062-.261719 2.621093-.261719 3.910156 0 .640625.128906 1.269531.320312 1.871094.570312.597656.25 1.179687.558594 1.730469.917969.539062.371094 1.058593.78125 1.519531 1.25.460937.460938.878906.972657 1.238281 1.511719.359375.550781.671875 1.128906.921875 1.730469.25.597656.441406 1.230469.570313 1.871093.128906.648438.199218 1.296876.199218 1.957032 0 2.632812-1.070312 5.199218-2.929687 7.0625-1.859375 1.867187-4.441407 2.9375-7.070313 2.9375zm0 0" fill="#2b616d"/><path d="m409.273438 473.085938h-196.390626c-5.523437 0-10-4.476563-10-10 0-5.523438 4.476563-10 10-10h196.390626c5.523437 0 10 4.476562 10 10 0 5.523437-4.476563 10-10 10zm0 0" fill="#2b616d"/><path d="m157.796875 473.085938h-59c-5.523437 0-10-4.476563-10-10 0-5.523438 4.476563-10 10-10h59c5.519531 0 10 4.476562 10 10 0 5.523437-4.480469 10-10 10zm0 0" fill="#2b616d"/></svg>
